<svg width="133" height="32" viewBox="0 0 133 32" fill="none" xmlns="http://www.w3.org/2000/svg">
<path d="M127.396 4.69593C127.937 5.23888 128.576 5.51035 129.313 5.51035C130.073 5.51035 130.723 5.23888 131.265 4.69593C131.806 4.15297 132.076 3.51184 132.076 2.7725C132.076 2.03316 131.806 1.38625 131.265 0.831751C130.723 0.277247 130.073 0 129.313 0C128.576 0 127.937 0.277247 127.396 0.831751C126.855 1.38625 126.584 2.03316 126.584 2.7725C126.584 3.51184 126.855 4.15297 127.396 4.69593Z" fill="white"/>
<path d="M69.1285 11.7848C69.1285 11.8415 69.0825 11.8876 69.0258 11.8876H65.2256V19.0961C65.2256 19.6968 65.3753 20.1358 65.6746 20.413C65.974 20.6903 66.4115 20.8462 66.9871 20.8809C67.5138 20.9126 68.156 20.9104 68.9139 20.8745L68.9334 20.8735L68.9684 20.8718L69.0204 20.8692C69.0792 20.8661 69.1285 20.913 69.1285 20.9719V24.8264C69.1285 24.8787 69.0892 24.9227 69.0372 24.9285C69.0119 24.9312 68.9863 24.934 68.9675 24.9361C65.9903 25.2545 63.8853 24.9598 62.6525 24.0519C61.3976 23.1277 60.7701 21.4758 60.7701 19.0961V11.8876H57.868C57.8112 11.8876 57.7652 11.8415 57.7652 11.7848V7.69297C57.7652 7.6362 57.8112 7.59019 57.868 7.59019H60.7701V4.72802C60.7701 4.64661 60.8182 4.57287 60.8926 4.53998L65.0813 2.69016C65.1493 2.66015 65.2256 2.70991 65.2256 2.78418V7.59019H69.0258C69.0825 7.59019 69.1285 7.6362 69.1285 7.69297V11.7848Z" fill="white"/>
<path d="M77.2078 10.5704C77.6222 9.46139 78.3073 8.62964 79.2628 8.07514C80.1374 7.56768 81.1035 7.29243 82.1612 7.24938C82.2122 7.2473 82.2906 7.24576 82.3539 7.24476C82.4111 7.24386 82.4577 7.29004 82.4577 7.34721V12.0498C82.4577 12.148 82.3724 12.2235 82.2746 12.2147C80.9898 12.0981 79.8362 12.3817 78.8138 13.0656C77.7431 13.7819 77.2078 14.9717 77.2078 16.6352V24.8153C77.2078 24.8721 77.1618 24.9181 77.105 24.9181H72.855C72.7983 24.9181 72.7522 24.8721 72.7522 24.8153V7.69274C72.7522 7.63597 72.7983 7.58995 72.855 7.58995H77.105C77.1618 7.58995 77.2078 7.63597 77.2078 7.69274V10.5704Z" fill="white"/>
<path fill-rule="evenodd" clip-rule="evenodd" d="M98.2754 7.58966C98.2186 7.58966 98.1726 7.63568 98.1726 7.69245V9.63438C96.8371 7.94777 94.9605 7.10447 92.5428 7.10447C90.2402 7.10447 88.2657 7.9882 86.6193 9.75568C84.973 11.5232 84.1498 13.6892 84.1498 16.2537C84.1498 18.8183 84.973 20.9843 86.6193 22.7518C88.2657 24.5193 90.2402 25.403 92.5428 25.403C94.9605 25.403 96.8371 24.5597 98.1726 22.8731V24.815C98.1726 24.8718 98.2186 24.9178 98.2754 24.9178H102.525C102.582 24.9178 102.628 24.8718 102.628 24.815V7.69245C102.628 7.63568 102.582 7.58966 102.525 7.58966H98.2754ZM89.952 19.7889C90.85 20.69 91.9898 21.1405 93.3714 21.1405C94.7529 21.1405 95.8985 20.6842 96.808 19.7716C97.7175 18.8589 98.1723 17.6864 98.1723 16.254C98.1723 14.8215 97.7175 13.649 96.808 12.7363C95.8985 11.8237 94.7529 11.3674 93.3714 11.3674C91.9898 11.3674 90.85 11.8237 89.952 12.7363C89.054 13.649 88.605 14.8215 88.605 16.254C88.605 17.6864 89.054 18.8647 89.952 19.7889Z" fill="white"/>
<path fill-rule="evenodd" clip-rule="evenodd" d="M121.98 9.75568C120.334 7.9882 118.348 7.10447 116.022 7.10447C113.604 7.10447 111.739 7.94777 110.427 9.63438V7.69245C110.427 7.63568 110.381 7.58966 110.324 7.58966H106.074C106.017 7.58966 105.971 7.63568 105.971 7.69245V31.7463C105.971 31.803 106.017 31.8491 106.074 31.8491H110.324C110.381 31.8491 110.427 31.803 110.427 31.7463V22.8731C111.739 24.5597 113.604 25.403 116.022 25.403C118.348 25.403 120.334 24.5193 121.98 22.7518C123.626 20.9843 124.45 18.8183 124.45 16.2537C124.45 13.6892 123.626 11.5232 121.98 9.75568ZM111.773 19.7889C112.671 20.69 113.811 21.1405 115.193 21.1405C116.574 21.1405 117.72 20.6842 118.629 19.7716C119.539 18.8589 119.994 17.6864 119.994 16.254C119.994 14.8215 119.539 13.649 118.629 12.7363C117.72 11.8237 116.574 11.3674 115.193 11.3674C113.811 11.3674 112.671 11.8237 111.773 12.7363C110.875 13.649 110.426 14.8215 110.426 16.254C110.426 17.6864 110.875 18.8647 111.773 19.7889Z" fill="white"/>
<path d="M127.206 24.9182C127.149 24.9182 127.103 24.8722 127.103 24.8154V7.69282C127.103 7.63606 127.149 7.59004 127.206 7.59004H131.456C131.513 7.59004 131.559 7.63606 131.559 7.69282V24.8154C131.559 24.8722 131.513 24.9182 131.456 24.9182H127.206Z" fill="white"/>
<path d="M47.6738 13.6372C47.0636 13.3484 46.7586 12.9729 46.7586 12.5108C46.7586 12.0719 46.9485 11.7253 47.3284 11.4711C47.7084 11.217 48.1862 11.0899 48.7618 11.0899C49.8657 11.0899 50.6995 11.5217 51.2634 12.3852C51.3027 12.4454 51.3793 12.4698 51.445 12.4406L55.2042 10.7719C55.2602 10.747 55.2821 10.6791 55.251 10.6264C55.2095 10.5563 55.155 10.465 55.1187 10.4078C54.4744 9.39146 53.6409 8.63433 52.5956 8.0575C51.4443 7.42213 50.1664 7.10445 48.7618 7.10445C46.8967 7.10445 45.3367 7.59541 44.0818 8.57735C42.8269 9.55928 42.1994 10.9051 42.1994 12.6148C42.1994 13.7469 42.5045 14.6884 43.1147 15.4393C43.7249 16.1902 44.4675 16.7389 45.3425 17.0855C46.2174 17.432 47.0924 17.7208 47.9674 17.9519C48.8424 18.1829 49.585 18.4428 50.1952 18.7316C50.8054 19.0204 51.1105 19.3959 51.1105 19.858C51.1105 20.8515 50.3161 21.3482 48.7273 21.3482C47.2149 21.3482 46.1669 20.7874 45.5832 19.6658C45.5331 19.5694 45.4183 19.5253 45.3191 19.5695L41.5705 21.236C41.5177 21.2595 41.4946 21.3219 41.5197 21.374C41.5349 21.4054 41.5508 21.4383 41.5625 21.4618C42.8726 24.0893 45.2608 25.403 48.7273 25.403C50.7075 25.403 52.3596 24.9236 53.6836 23.9647C55.0076 23.0059 55.6696 21.637 55.6696 19.858C55.6696 18.6796 55.3645 17.6977 54.7543 16.9122C54.1441 16.1266 53.4016 15.5664 52.5266 15.2314C51.6516 14.8963 50.7766 14.6191 49.9016 14.3996C49.0266 14.1801 48.284 13.926 47.6738 13.6372Z" fill="white"/>
<path d="M0 11.0933C0 5.86389 0 3.24916 1.62458 1.62458C3.24916 0 5.86389 0 11.0933 0H20.9067C26.1361 0 28.7508 0 30.3754 1.62458C32 3.24916 32 5.86389 32 11.0933V20.9067C32 26.1361 32 28.7508 30.3754 30.3754C28.7508 32 26.1361 32 20.9067 32H11.0933C5.86389 32 3.24916 32 1.62458 30.3754C0 28.7508 0 26.1361 0 20.9067V11.0933Z" fill="#4945FF"/>
<path fill-rule="evenodd" clip-rule="evenodd" d="M22.08 9.7066H11.3066V15.1999H16.8V20.6933L22.2933 20.6933V9.91994C22.2933 9.80212 22.1978 9.7066 22.08 9.7066Z" fill="white"/>
<rect x="16.5867" y="15.2" width="0.213333" height="0.213333" fill="white"/>
<path d="M11.3066 15.2H16.5866C16.7045 15.2 16.8 15.2955 16.8 15.4133V20.6933H11.52C11.4022 20.6933 11.3066 20.5978 11.3066 20.48V15.2Z" fill="#9593FF"/>
<path d="M16.8 20.6933H22.2934L16.9821 26.0046C16.9149 26.0718 16.8 26.0242 16.8 25.9291V20.6933Z" fill="#9593FF"/>
<path d="M11.3067 15.2H6.07087C5.97584 15.2 5.92825 15.0851 5.99544 15.0179L11.3067 9.70663V15.2Z" fill="#9593FF"/>
</svg>
